<svg viewBox="0 0 100 100" fill="none" xmlns="http://www.w3.org/2000/svg">
  <rect width="100" height="100" fill="#1A1A1A"/>
  <g transform="translate(50, 50)">
    <path d="M -35 0 Q -35 -45 0 -45 Q 35 -45 35 0 Q 35 40 0 40 Q -35 40 -35 0" stroke="#D45F3C" stroke-width="3" fill="none" opacity="0.4"/>
    <path d="M -25 0 Q -25 -32 0 -32 Q 25 -32 25 0 Q 25 28 0 28 Q -25 28 -25 0" stroke="#D45F3C" stroke-width="3" fill="none" opacity="0.6"/>
    <path d="M -15 0 Q -15 -20 0 -20 Q 15 -20 15 0 Q 15 16 0 16 Q -15 16 -15 0" stroke="#D45F3C" stroke-width="3" fill="none" opacity="0.8"/>
    <circle cx="0" cy="0" r="7" fill="#D45F3C" opacity="1"/>
  </g>
</svg>
